<svg width="32" height="32" viewBox="0 0 32 32" fill="none" xmlns="http://www.w3.org/2000/svg">
  <path d="M10 8C10 7.44772 10.4477 7 11 7C11.5523 7 12 7.44772 12 8C12 8.55228 11.5523 9 11 9C10.4477 9 10 8.55228 10 8Z" fill="#1A5F7A"/>
  <path d="M14 8C14 7.44772 14.4477 7 15 7C15.5523 7 16 7.44772 16 8C16 8.55228 15.5523 9 15 9C14.4477 9 14 8.55228 14 8Z" fill="#1A5F7A"/>
  <path d="M18 8C18 7.44772 18.4477 7 19 7C19.5523 7 20 7.44772 20 8C20 8.55228 19.5523 9 19 9C18.4477 9 18 8.55228 18 8Z" fill="#1A5F7A"/>
  <path d="M22 18C22 20.2091 20.2091 22 18 22H10C7.79086 22 6 20.2091 6 18V14C6 11.7909 7.79086 10 10 10H18C20.2091 10 22 11.7909 22 14V18Z" fill="#1A5F7A"/>
  <path d="M22 16H24C25.1046 16 26 15.1046 26 14V13C26 11.8954 25.1046 11 24 11H22V16Z" fill="#1A5F7A"/>
</svg>

